<svg preserveAspectRatio="none" overflow="visible" style="display: block;" width="12.5584" height="12.0009" viewBox="0 0 12.5584 12.0009" fill="none" xmlns="http://www.w3.org/2000/svg">
<g id="Group 1321316820">
<path id="Vector" d="M3.56253 4.96302L4.10741 3.32835C4.22202 2.98446 4.70851 2.98446 4.82315 3.32835L5.36802 4.96302C5.6308 5.75148 6.24947 6.37014 7.03792 6.63292L8.67265 7.17779C9.01648 7.29244 9.01648 7.77893 8.67265 7.89357L7.03792 8.43844C6.24947 8.70122 5.6308 9.31989 5.36802 10.1083L4.82315 11.7431C4.70851 12.0869 4.22202 12.0869 4.10741 11.7431L3.56253 10.1083C3.29972 9.31989 2.68102 8.70122 1.89257 8.43844L0.257927 7.89357C-0.0859758 7.77893 -0.0859758 7.29244 0.257927 7.17779L1.89257 6.63292C2.68102 6.37014 3.29972 5.75148 3.56253 4.96302Z" fill="white"/>
<path id="Vector_2" d="M9.20345 1.18285L9.54393 0.161201C9.6156 -0.0537338 9.91968 -0.0537338 9.99135 0.161201L10.3318 1.18285C10.4961 1.67563 10.8828 2.06232 11.3756 2.22657L12.3972 2.56713C12.6121 2.63877 12.6121 2.94279 12.3972 3.01443L11.3756 3.35497C10.8828 3.51929 10.4961 3.90598 10.3318 4.39872L9.99135 5.42037C9.91968 5.63526 9.6156 5.63526 9.54393 5.42037L9.20345 4.39872C9.03913 3.90598 8.65244 3.51929 8.1597 3.35497L7.13805 3.01443C6.92316 2.94279 6.92316 2.63877 7.13805 2.56713L8.1597 2.22657C8.65244 2.06232 9.03913 1.67563 9.20345 1.18285Z" fill="white"/>
</g>
</svg>
