<svg width="16" height="16" viewBox="0 0 16 16" fill="none" xmlns="http://www.w3.org/2000/svg">
<g clip-path="url(#clip0_8155_170974)">
<g filter="url(#filter0_d_8155_170974)">
<path d="M13.3295 5.93164C14.2021 5.93164 14.841 6.63274 14.841 7.49929V10.6346C14.841 13.5978 14.4279 16 9.97618 16C8.02809 16 7.10658 15.6111 6.30222 14.9553C6.19448 14.8908 6.09475 14.8138 6.00511 14.7258L1.59383 10.3423C0.842613 9.5905 1.18622 8.53373 1.71279 8.00836C2.23816 7.48178 3.32936 7.39543 3.94712 8.00836L4.90426 8.96368V1.56766C4.90601 1.15034 5.0734 0.750795 5.36962 0.456837C5.66584 0.162879 6.06666 -0.00143497 6.48398 9.44287e-06C7.35658 9.44287e-06 8.01178 0.701105 8.01178 1.56766V4.46786C8.24084 4.3447 8.4969 4.28038 8.75696 4.28066C9.45141 4.28066 9.99067 4.72631 10.2026 5.34347C10.4442 5.19432 10.7371 5.10555 11.0438 5.10555C11.7383 5.10555 12.2763 5.5512 12.4883 6.16957C12.726 6.01426 13.0038 5.93159 13.2878 5.93164H13.3295ZM14.007 10.6346V10.637H14.0106V7.59954C14.0106 6.82779 13.2854 6.85798 13.2854 6.85798C12.8723 6.85798 12.565 7.19011 12.565 7.59954V9.2312H12.5565C12.5618 9.25868 12.5646 9.28656 12.565 9.31453C12.5658 9.36843 12.5558 9.42195 12.5357 9.47196C12.5156 9.52198 12.4857 9.56748 12.4479 9.60582C12.41 9.64416 12.3648 9.67457 12.315 9.69527C12.2653 9.71597 12.2119 9.72654 12.158 9.72637C12.0966 9.72648 12.0361 9.71297 11.9806 9.68683C11.9251 9.66068 11.8761 9.62254 11.8372 9.57516C11.7983 9.52779 11.7703 9.47236 11.7554 9.41288C11.7405 9.35339 11.739 9.29134 11.751 9.2312H11.7425V6.83745C11.7425 6.14239 10.9949 6.09529 10.9949 6.09529C10.5819 6.09529 10.2884 6.42803 10.2884 6.83745V8.73784H10.2787C10.2908 8.79794 10.2894 8.85998 10.2745 8.91947C10.2597 8.97895 10.2318 9.0344 10.1929 9.08179C10.154 9.12918 10.1051 9.16733 10.0496 9.19348C9.99419 9.21964 9.93362 9.23314 9.87231 9.23301C9.81099 9.23312 9.7504 9.21961 9.69493 9.19346C9.63946 9.16731 9.59049 9.12917 9.55155 9.0818C9.51261 9.03443 9.48468 8.979 9.46976 8.91951C9.45484 8.86003 9.45332 8.79798 9.4653 8.73784H9.45685V6.01437C9.45685 5.26134 8.72435 5.27161 8.72435 5.27161C8.3113 5.27161 8.01178 5.60374 8.01178 6.01437V8.0772H8.00393C8.01604 8.13746 8.01458 8.19965 7.99964 8.25927C7.9847 8.31889 7.95666 8.37443 7.91757 8.42186C7.87847 8.46928 7.8293 8.5074 7.77362 8.53343C7.71795 8.55947 7.65717 8.57277 7.59571 8.57238C7.53439 8.57248 7.47381 8.55898 7.41834 8.53283C7.36287 8.50668 7.31389 8.46854 7.27495 8.42116C7.23601 8.37379 7.20808 8.31836 7.19316 8.25888C7.17825 8.19939 7.17672 8.13734 7.1887 8.0772H7.18085V1.73433C7.18085 1.3249 6.89824 0.991567 6.48519 0.991567C6.07094 0.991567 5.73639 1.3249 5.73639 1.73433V10.9577C4.98155 10.2089 4.22792 9.45886 3.47429 8.70945C3.18201 8.4196 2.62705 8.43046 2.32512 8.73361C2.02379 9.03554 1.93019 9.50717 2.29915 9.87734L6.47432 14.0253C7.24909 14.7947 8.27205 15.1739 9.97376 15.1739C13.9949 15.1739 14.007 13.1419 14.007 10.6346Z" fill="black"></path>
<path d="M14.007 10.6346V10.637H14.0106V7.59954C14.0106 6.82779 13.2854 6.85798 13.2854 6.85798C12.8723 6.85798 12.565 7.19011 12.565 7.59954V9.2312H12.5565C12.5618 9.25868 12.5646 9.28656 12.565 9.31453C12.5658 9.36843 12.5558 9.42195 12.5357 9.47196C12.5156 9.52198 12.4857 9.56748 12.4479 9.60582C12.41 9.64416 12.3648 9.67457 12.315 9.69527C12.2653 9.71597 12.2119 9.72654 12.158 9.72637C12.0966 9.72648 12.0361 9.71297 11.9806 9.68683C11.9251 9.66068 11.8761 9.62254 11.8372 9.57516C11.7983 9.52779 11.7703 9.47236 11.7554 9.41288C11.7405 9.35339 11.739 9.29134 11.751 9.2312H11.7425V6.83745C11.7425 6.14239 10.9949 6.09529 10.9949 6.09529C10.5819 6.09529 10.2884 6.42803 10.2884 6.83745V8.73784H10.2787C10.2908 8.79794 10.2894 8.85998 10.2745 8.91947C10.2597 8.97895 10.2318 9.0344 10.1929 9.08179C10.154 9.12918 10.1051 9.16733 10.0496 9.19348C9.99419 9.21964 9.93362 9.23314 9.87231 9.23301C9.81099 9.23312 9.7504 9.21961 9.69493 9.19346C9.63946 9.16731 9.59049 9.12917 9.55155 9.0818C9.51261 9.03443 9.48468 8.979 9.46976 8.91951C9.45484 8.86003 9.45332 8.79798 9.4653 8.73784H9.45685V6.01437C9.45685 5.26134 8.72435 5.27161 8.72435 5.27161C8.3113 5.27161 8.01178 5.60374 8.01178 6.01437V8.0772H8.00393C8.01604 8.13746 8.01458 8.19965 7.99964 8.25927C7.9847 8.31889 7.95666 8.37443 7.91757 8.42186C7.87847 8.46928 7.8293 8.5074 7.77362 8.53343C7.71795 8.55947 7.65717 8.57277 7.59571 8.57238C7.53439 8.57248 7.47381 8.55898 7.41834 8.53283C7.36287 8.50668 7.31389 8.46854 7.27495 8.42116C7.23601 8.37379 7.20808 8.31836 7.19316 8.25888C7.17825 8.19939 7.17672 8.13734 7.1887 8.0772H7.18085V1.73433C7.18085 1.3249 6.89824 0.991567 6.48519 0.991567C6.07094 0.991567 5.73639 1.3249 5.73639 1.73433V10.9577C4.98155 10.2089 4.22792 9.45886 3.47429 8.70945C3.18201 8.4196 2.62705 8.43046 2.32512 8.73361C2.02379 9.03554 1.93019 9.50717 2.29915 9.87734L6.47432 14.0253C7.24909 14.7947 8.27205 15.1739 9.97376 15.1739C13.9949 15.1739 14.007 13.1419 14.007 10.6346Z" fill="white"></path>
</g>
</g>
<defs>
<filter id="filter0_d_8155_170974" x="-0.31288" y="-0.981292" width="16.6258" height="18.9439" filterUnits="userSpaceOnUse" color-interpolation-filters="sRGB">
<feFlood flood-opacity="0" result="BackgroundImageFix"></feFlood>
<feColorMatrix in="SourceAlpha" type="matrix" values="0 0 0 0 0 0 0 0 0 0 0 0 0 0 0 0 0 0 127 0" result="hardAlpha"></feColorMatrix>
<feOffset dy="0.490646"></feOffset>
<feGaussianBlur stdDeviation="0.735969"></feGaussianBlur>
<feComposite in2="hardAlpha" operator="out"></feComposite>
<feColorMatrix type="matrix" values="0 0 0 0 0 0 0 0 0 0 0 0 0 0 0 0 0 0 0.12 0"></feColorMatrix>
<feBlend mode="normal" in2="BackgroundImageFix" result="effect1_dropShadow_8155_170974"></feBlend>
<feBlend mode="normal" in="SourceGraphic" in2="effect1_dropShadow_8155_170974" result="shape"></feBlend>
</filter>
<clipPath id="clip0_8155_170974">
<rect width="16" height="16" fill="white"></rect>
</clipPath>
</defs>
</svg>