<svg width="136" height="154" viewBox="0 0 136 154" fill="none" xmlns="http://www.w3.org/2000/svg">
<path d="M64.9993 133.957L16.8522 88.1394L24.6178 71.0548L47.1383 88.1394V16.0142H61.1165L64.9993 50.2811L89.8494 53.9704L105.381 58.6299H119.359V116.872L96.062 133.957H64.9993Z" fill="white"></path>
<g filter="url(#filter0_d_8066_74186)">
<path d="M111.22 55.6912V55.6813C118.333 55.6813 123.542 61.4068 123.542 68.4715V94.0321C123.542 118.19 120.175 137.774 83.8817 137.774C67.9998 137.774 60.4872 134.603 53.9297 129.257C53.0513 128.731 52.2383 128.103 51.5076 127.386L15.5444 91.6493C9.42018 85.5201 12.2214 76.9047 16.5143 72.6216C20.7974 68.3287 29.6934 67.6247 34.7297 72.6216L42.5328 80.41V20.7805C42.5471 17.3782 43.9117 14.1209 46.3267 11.7244C48.7416 9.3279 52.0093 7.98832 55.4116 8.00008C62.5253 8.00008 67.8669 13.7158 67.8669 20.7805V43.7576C69.7343 42.7536 71.8218 42.2292 73.9419 42.2315C79.6036 42.2315 83.9998 45.8647 85.7278 50.8961C87.6971 49.6801 90.0848 48.9565 92.5857 48.9565C98.2472 48.9565 102.634 52.5896 104.362 57.6308C106.3 56.3647 108.565 55.6907 110.88 55.6912H111.224H111.22ZM116.743 94.0321V94.0518H116.773V69.2887C116.773 62.9971 110.86 63.2432 110.86 63.2432C107.493 63.2432 104.987 65.9508 104.987 69.2887V82.5908H104.918C104.961 82.8148 104.984 83.0422 104.987 83.2702C104.993 83.7096 104.912 84.1459 104.748 84.5536C104.584 84.9613 104.341 85.3323 104.032 85.6449C103.723 85.9574 103.355 86.2053 102.949 86.3741C102.544 86.5428 102.108 86.629 101.669 86.6277C101.169 86.6286 100.675 86.5185 100.223 86.3053C99.7705 86.0921 99.3712 85.7812 99.0538 85.395C98.7363 85.0088 98.5086 84.5569 98.3869 84.072C98.2653 83.587 98.2529 83.0811 98.3506 82.5908H98.2818V63.0758C98.2818 57.4093 92.1868 57.0253 92.1868 57.0253C88.8196 57.0253 86.4268 59.7378 86.4268 63.0758V78.5687H86.3481C86.4466 79.0587 86.4349 79.5645 86.314 80.0494C86.193 80.5344 85.9658 80.9864 85.6487 81.3727C85.3316 81.7591 84.9326 82.0701 84.4806 82.2833C84.0285 82.4965 83.5347 82.6066 83.0349 82.6056C82.535 82.6065 82.0411 82.4963 81.5889 82.2831C81.1367 82.07 80.7374 81.759 80.42 81.3728C80.1025 80.9866 79.8748 80.5347 79.7532 80.0498C79.6316 79.5649 79.6192 79.059 79.7168 78.5687H79.6478V56.3656C79.6478 50.2266 73.6762 50.3102 73.6762 50.3102C70.3087 50.3102 67.8669 53.018 67.8669 56.3656V73.1828H67.8029C67.9017 73.6741 67.8898 74.1812 67.768 74.6672C67.6462 75.1533 67.4177 75.6061 67.0989 75.9927C66.7802 76.3794 66.3793 76.6901 65.9254 76.9024C65.4715 77.1146 64.976 77.2231 64.4749 77.2198C63.975 77.2207 63.4811 77.1106 63.0289 76.8974C62.5766 76.6842 62.1774 76.3733 61.8599 75.987C61.5425 75.6008 61.3147 75.1489 61.1931 74.664C61.0716 74.179 61.0591 73.6731 61.1568 73.1828H61.0928V22.1391C61.0928 18.8013 58.7888 16.0838 55.4214 16.0838C52.0442 16.0838 49.3168 18.8013 49.3168 22.1392V96.666C43.1629 90.5613 37.0189 84.4468 30.8749 78.3373C28.4922 75.9742 23.9678 76.0628 21.5063 78.5342C19.0497 80.9958 18.2866 84.8407 21.2946 87.8586L55.3328 121.675C61.6491 127.947 69.9888 131.039 83.8621 131.039C116.645 131.039 116.743 114.473 116.743 94.0321Z" fill="black"></path>
</g>
<defs>
<filter id="filter0_d_8066_74186" x="0" y="0" width="135.542" height="153.773" filterUnits="userSpaceOnUse" color-interpolation-filters="sRGB">
<feFlood flood-opacity="0" result="BackgroundImageFix"></feFlood>
<feColorMatrix in="SourceAlpha" type="matrix" values="0 0 0 0 0 0 0 0 0 0 0 0 0 0 0 0 0 0 127 0" result="hardAlpha"></feColorMatrix>
<feOffset dy="4"></feOffset>
<feGaussianBlur stdDeviation="6"></feGaussianBlur>
<feComposite in2="hardAlpha" operator="out"></feComposite>
<feColorMatrix type="matrix" values="0 0 0 0 0 0 0 0 0 0 0 0 0 0 0 0 0 0 0.24 0"></feColorMatrix>
<feBlend mode="normal" in2="BackgroundImageFix" result="effect1_dropShadow_8066_74186"></feBlend>
<feBlend mode="normal" in="SourceGraphic" in2="effect1_dropShadow_8066_74186" result="shape"></feBlend>
</filter>
</defs>
</svg>